# pragma once

# define NOTE_BREAK 0.0

# define NOTE_C0    16.35
# define NOTE_Cs0   17.32  // C#0 / Db0
# define NOTE_D0    18.35
# define NOTE_Ds0   19.45  // D#0 / Eb0
# define NOTE_E0    20.60
# define NOTE_F0    21.83
# define NOTE_Fs0   23.12  // F#0 / Gb0
# define NOTE_G0    24.50
# define NOTE_Gs0   25.96  // G#0 / Ab0
# define NOTE_A0    27.50
# define NOTE_As0   29.14  // A#0 / Bb0
# define NOTE_B0    30.87

# define NOTE_C1    32.70
# define NOTE_Cs1   34.65  // C#1 / Db1
# define NOTE_D1    36.71
# define NOTE_Ds1   38.89  // D#1 / Eb1
# define NOTE_E1    41.20
# define NOTE_F1    43.65
# define NOTE_Fs1   46.25  // F#1 / Gb1
# define NOTE_G1    49.00
# define NOTE_Gs1   51.91  // G#1 / Ab1
# define NOTE_A1    55.00
# define NOTE_As1   58.27  // A#1 / Bb1
# define NOTE_B1    61.74

# define NOTE_C2    65.41
# define NOTE_Cs2   69.30  // C#2 / Db2
# define NOTE_D2    73.42
# define NOTE_Ds2   77.78  // D#2 / Eb2
# define NOTE_E2    82.41
# define NOTE_F2    87.31
# define NOTE_Fs2   92.50  // F#2 / Gb2
# define NOTE_G2    98.00
# define NOTE_Gs2  103.83  // G#2 / Ab2
# define NOTE_A2   110.00
# define NOTE_As2  116.54  // A#2 / Bb2
# define NOTE_B2   123.47

# define NOTE_C3   130.81
# define NOTE_Cs3  138.59  // C#3 / Db3
# define NOTE_D3   146.83
# define NOTE_Ds3  155.56  // D#3 / Eb3
# define NOTE_E3   164.81
# define NOTE_F3   174.61
# define NOTE_Fs3  185.00  // F#3 / Gb3
# define NOTE_G3   196.00
# define NOTE_Gs3  207.65  // G#3 / Ab3
# define NOTE_A3   220.00
# define NOTE_As3  233.08  // A#3 / Bb3
# define NOTE_B3   246.94

# define NOTE_C4   261.63
# define NOTE_Cs4  277.18  // C#4 / Db4
# define NOTE_D4   293.66
# define NOTE_Ds4  311.13  // D#4 / Eb4
# define NOTE_E4   329.63
# define NOTE_F4   349.23
# define NOTE_Fs4  369.99  // F#4 / Gb4
# define NOTE_G4   392.00
# define NOTE_Gs4  415.30  // G#4 / Ab4
# define NOTE_A4   440.00
# define NOTE_As4  466.16  // A#4 / Bb4
# define NOTE_B4   493.88

# define NOTE_C5   523.25
# define NOTE_Cs5  554.37  // C#5 / Db5
# define NOTE_D5   587.33
# define NOTE_Ds5  622.25  // D#5 / Eb5
# define NOTE_E5   659.25
# define NOTE_F5   698.46
# define NOTE_Fs5  739.99  // F#5 / Gb5
# define NOTE_G5   783.99
# define NOTE_Gs5  830.61  // G#5 / Ab5
# define NOTE_A5   880.00
# define NOTE_As5  932.33  // A#5 / Bb5
# define NOTE_B5   987.77

# define NOTE_C6  1046.50
# define NOTE_Cs6 1108.73  // C#6 / Db6
# define NOTE_D6  1174.66
# define NOTE_Ds6 1244.51  // D#6 / Eb6
# define NOTE_E6  1318.51
# define NOTE_F6  1396.91
# define NOTE_Fs6 1479.98  // F#6 / Gb6
# define NOTE_G6  1567.98
# define NOTE_Gs6 1661.22  // G#6 / Ab6
# define NOTE_A6  1760.00
# define NOTE_As6 1864.66  // A#6 / Bb6
# define NOTE_B6  1975.53

# define NOTE_C7  2093.00
# define NOTE_Cs7 2217.46  // C#7 / Db7
# define NOTE_D7  2349.32
# define NOTE_Ds7 2489.02  // D#7 / Eb7
# define NOTE_E7  2637.02
# define NOTE_F7  2793.83
# define NOTE_Fs7 2959.96  // F#7 / Gb7
# define NOTE_G7  3135.96
# define NOTE_Gs7 3322.44  // G#7 / Ab7
# define NOTE_A7  3520.00
# define NOTE_As7 3729.31  // A#7 / Bb7
# define NOTE_B7  3951.07

# define NOTE_C8  4186.01
# define NOTE_Cs8 4434.92  // C#8 / Db8
# define NOTE_D8  4698.63
# define NOTE_Ds8 4978.03  // D#8 / Eb8
# define NOTE_E8  5274.04
# define NOTE_F8  5587.65
# define NOTE_Fs8 5919.91  // F#8 / Gb8
# define NOTE_G8  6271.93
# define NOTE_Gs8 6644.88  // G#8 / Ab8
# define NOTE_A8  7040.00
# define NOTE_As8 7458.62  // A#8 / Bb8
# define NOTE_B8  7902.13