<svg width="250" xmlns="http://www.w3.org/2000/svg" height="250" id="screenshot-72c99f0e-8294-80cf-8005-d6adfc1cd9b5" viewBox="0 0 250 250" xmlns:xlink="http://www.w3.org/1999/xlink" fill="none" version="1.1"><g id="shape-72c99f0e-8294-80cf-8005-d6adfc1cd9b5"><defs><clipPath id="frame-clip-72c99f0e-8294-80cf-8005-d6adfc1cd9b5-render-1" class="frame-clip frame-clip-def"><rect rx="0" ry="0" x="0" y="0" width="250" height="250" transform="matrix(1.000000, 0.000000, 0.000000, 1.000000, 0.000000, 0.000000)"/></clipPath></defs><g><g><g clip-path="url(#frame-clip-72c99f0e-8294-80cf-8005-d6adfc1cd9b5-render-1)" fill="none"><g class="fills" id="fills-72c99f0e-8294-80cf-8005-d6adfc1cd9b5"><rect rx="0" ry="0" x="0" y="0" width="250" height="250" transform="matrix(1.000000, 0.000000, 0.000000, 1.000000, 0.000000, 0.000000)" class="frame-background"/></g><g class="frame-children"><g id="shape-e1967802-9b5a-8036-8005-da98f80d3138"><g><g><g fill="none"><g class="fills" id="fills-e1967802-9b5a-8036-8005-da98f80d3138"><rect rx="0" ry="0" x="43" y="73" width="165.00000000000003" height="105" transform="matrix(1.000000, 0.000000, 0.000000, 1.000000, 0.000000, 0.000000)" class="frame-background"/></g><g class="frame-children"><g id="shape-e1967802-9b5a-8036-8005-da9788f1207e"><g class="fills" id="fills-e1967802-9b5a-8036-8005-da9788f1207e"><rect rx="0" ry="0" x="178" y="163" transform="matrix(1.000000, 0.000000, 0.000000, 1.000000, 0.000000, 0.000000)" width="15" height="15" style="fill: rgb(49, 222, 185); fill-opacity: 1;"/></g></g><g id="shape-e1967802-9b5a-8036-8005-da97876975ad"><g class="fills" id="fills-e1967802-9b5a-8036-8005-da97876975ad"><rect rx="0" ry="0" x="148" y="163" transform="matrix(1.000000, 0.000000, 0.000000, 1.000000, 0.000000, 0.000000)" width="15" height="15" style="fill: rgb(49, 222, 185); fill-opacity: 1;"/></g></g><g id="shape-e1967802-9b5a-8036-8005-da978550d68f"><g class="fills" id="fills-e1967802-9b5a-8036-8005-da978550d68f"><rect rx="0" ry="0" x="118" y="163" transform="matrix(1.000000, 0.000000, 0.000000, 1.000000, 0.000000, 0.000000)" width="15" height="15" style="fill: rgb(49, 222, 185); fill-opacity: 1;"/></g></g><g id="shape-e1967802-9b5a-8036-8005-da977f8b683f"><g class="fills" id="fills-e1967802-9b5a-8036-8005-da977f8b683f"><rect rx="0" ry="0" x="88" y="163" transform="matrix(1.000000, 0.000000, 0.000000, 1.000000, 0.000000, 0.000000)" width="15" height="15" style="fill: rgb(49, 222, 185); fill-opacity: 1;"/></g></g><g id="shape-e1967802-9b5a-8036-8005-da9779f57d02"><g class="fills" id="fills-e1967802-9b5a-8036-8005-da9779f57d02"><rect rx="0" ry="0" x="58" y="163" transform="matrix(1.000000, 0.000000, 0.000000, 1.000000, 0.000000, 0.000000)" width="15" height="15" style="fill: rgb(49, 222, 185); fill-opacity: 1;"/></g></g><g id="shape-e1967802-9b5a-8036-8005-da9773701c46"><g class="fills" id="fills-e1967802-9b5a-8036-8005-da9773701c46"><rect rx="0" ry="0" x="178" y="73" transform="matrix(1.000000, 0.000000, 0.000000, 1.000000, 0.000000, 0.000000)" width="15" height="15" style="fill: rgb(225, 122, 42); fill-opacity: 1;"/></g></g><g id="shape-e1967802-9b5a-8036-8005-da976b278db3"><g class="fills" id="fills-e1967802-9b5a-8036-8005-da976b278db3"><rect rx="0" ry="0" x="148" y="73" transform="matrix(1.000000, 0.000000, 0.000000, 1.000000, 0.000000, 0.000000)" width="15" height="15" style="fill: rgb(225, 122, 42); fill-opacity: 1;"/></g></g><g id="shape-e1967802-9b5a-8036-8005-da97685db3c6"><g class="fills" id="fills-e1967802-9b5a-8036-8005-da97685db3c6"><rect rx="0" ry="0" x="118" y="73" transform="matrix(1.000000, 0.000000, 0.000000, 1.000000, 0.000000, 0.000000)" width="15" height="15" style="fill: rgb(225, 122, 42); fill-opacity: 1;"/></g></g><g id="shape-e1967802-9b5a-8036-8005-da974cffe693"><g class="fills" id="fills-e1967802-9b5a-8036-8005-da974cffe693"><rect rx="0" ry="0" x="88" y="73" transform="matrix(1.000000, 0.000000, 0.000000, 1.000000, 0.000000, 0.000000)" width="15" height="15" style="fill: rgb(225, 122, 42); fill-opacity: 1;"/></g></g><g id="shape-e1967802-9b5a-8036-8005-da972d0b094e"><g class="fills" id="fills-e1967802-9b5a-8036-8005-da972d0b094e"><rect rx="0" ry="0" x="58" y="73" transform="matrix(1.000000, 0.000000, 0.000000, 1.000000, 0.000000, 0.000000)" width="15" height="15" style="fill: rgb(225, 122, 42); fill-opacity: 1;"/></g></g><g id="shape-e1967802-9b5a-8036-8005-da8a6f6b3806"><g class="fills" id="fills-e1967802-9b5a-8036-8005-da8a6f6b3806"><rect rx="0" ry="0" x="42.999999999999986" y="88" transform="matrix(1.000000, 0.000000, 0.000000, 1.000000, 0.000000, 0.000000)" width="165" height="75" style="fill: rgb(43, 146, 224); fill-opacity: 1;"/></g></g></g></g></g></g></g></g></g></g></g></g></svg>